<svg version="1.0" xmlns="http://www.w3.org/2000/svg" width="933.333" height="933.333" viewBox="0 0 700 700"><path d="M327.8.5c-.1.1-4.2.5-8.9.9s-9.5.8-10.5 1c-1 .2-4.5.7-7.8 1.1-6.7.8-8.5 1.1-18.6 3.1-92.2 18.6-172.5 72.7-224.4 151.3-21.3 32.2-39 72.5-47.2 107.1-5 21.4-7.2 34.5-9.1 55-1.6 16.6-.9 56.6 1.2 71.7 1 6.7 1.4 9.9 2 14.8.4 2.7 1 6.6 1.5 8.5.5 1.9 1.2 4.8 1.4 6.5 5.3 29.4 19.6 67.7 37.4 99.4 20.2 36.3 46.3 67.8 80.8 97.6 23.1 19.9 60.1 42.4 90.7 54.9 16 6.6 43.4 15.3 57.1 18.2 9.7 2.1 21.5 4.1 27.6 4.9 2.5.3 5.6.7 6.9 1 16.3 3.1 69.5 2.6 90.8-.9 2.1-.4 5.2-.8 6.8-1 7-.9 20.9-3.9 33.2-7.1 43.8-11.6 83.1-30.5 119.3-57.3 6.3-4.7 12-9 12.6-9.6.7-.6 3.9-3.4 7.2-6.1 14.1-11.7 39.4-38.8 52.4-56 36-48 60.5-109 67.4-168 .4-3.3.9-7.6 1.1-9.5.8-7 1-51.7.3-59.5-1.5-15.8-2.1-21-2.5-22.5-.2-.8-.7-3.5-1-6-.8-6-4-21.3-7-33-8.6-33.9-24.2-68.9-45-101.5-4.2-6.5-19-26.9-22.9-31.3-1.3-1.5-4.3-5-6.6-7.7-14.2-16.8-36-37-55-50.9-5.8-4.3-11.2-8.3-12.1-8.9-1.7-1.3-1.3-1.1-15.9-10.1-36.3-22.4-84.3-40-125.5-46.2-2.7-.4-5.7-.9-6.5-1-.8-.2-4.4-.6-8-1-3.6-.3-7.8-.8-9.5-1.1-3.3-.5-53.1-1.3-53.7-.8zm52.2 30c6.1.6 7.4.8 21.5 2.9 22.7 3.4 54 12.4 73.2 21.2 1.7.8 3.4 1.4 3.7 1.4 1.1 0 24.6 11.9 32.1 16.3 12.9 7.5 33.8 21.9 42.9 29.7 19.6 16.6 35.7 33.2 48.7 50 20.7 26.7 35.1 51.7 46.7 81 6.6 16.6 15.1 47.1 16.8 59.5.3 2.7.8 5.3 1 5.6.1.3.6 2.8.9 5.5.3 2.7.8 6 1 7.4 2.6 15.1 2.6 62.7 0 78.1-.2 1.3-.6 4.2-1 6.4-1.1 7.9-1.7 11.1-3.7 20.5-1.1 5.2-2.1 10.2-2.3 11-1.7 8.4-10.9 36.1-15.3 46-8.2 18.9-14.7 31.6-21.8 42.7-1.9 2.9-3.4 5.5-3.4 5.8 0 1.6-21.4 30.2-29.4 39.4-4.2 4.8-25.1 25.7-30.1 30.1-33.1 29.1-75.5 52.8-117.2 65.6-17.4 5.3-32.1 8.5-49.8 11-2.7.3-5.9.8-6.9 1-16 2.9-65.4 2.3-82.6-1-.8-.1-3.7-.6-6.5-1-2.7-.4-6.1-1-7.5-1.2-9.3-1.4-34.5-8.3-47.5-12.9-45.4-16.2-84.7-40.9-118.5-74.5-14.7-14.7-17.3-17.5-27.6-30.6-27-34.4-48.2-77.8-58.8-119.9-2.2-9.1-5.4-25.2-6.1-32-.4-3.3-.9-6.9-1.1-8-2.5-12.6-2.4-60.9.1-76.5.2-1.4.7-4.3.9-6.5.5-3.5 2.4-14.2 4.1-23 5.7-29 21.3-68 38.6-96.7 5-8.3 15.8-24.3 18.9-28.1.5-.7 2.6-3.2 4.6-5.7l7.2-9c6.2-7.7 32.3-33.1 42.2-41.1 33.7-27 69.8-46.1 110.2-58.4 4.8-1.4 9.6-2.8 10.6-3 1-.2 4.7-1 8.3-1.9 9.6-2.3 20.7-4.4 27.4-5.2 3.3-.3 6.7-.8 7.6-.9.8-.2 5.5-.6 10.5-1 4.9-.4 9-.9 9.2-1 .6-.5 42.3.3 48.2 1z"/><path d="M223.9 235.1c-12.6 4.4-19.9 15.3-19.4 28.5.8 19.1 18.7 32.1 36.9 26.7 20.8-6.2 27.8-31.9 12.9-47.9-7.4-8.1-19.8-11-30.4-7.3zm234.1-.3c-16.7 5.6-24.9 23.7-17.8 39.4 5 10.9 14.5 17.1 26.3 17.1 8.6 0 14.7-2.5 20.5-8.3 11-11 11.5-28.4 1.1-40.3-6.9-7.8-20-11.3-30.1-7.9zM159.5 409.9c-8.3 3.7-10 10.2-6.1 24.2 15.9 58.2 58.4 107.5 113.7 131.7 21.1 9.2 39.8 14 64.9 16.8 6.6.7 29.6.7 36.5-.1 20.3-2.2 36.6-5.9 54-12.5 52.3-19.6 96-62.1 116.5-113.5 4.2-10.3 10-30 10-33.6 0-10.8-13-17.8-22.2-12-4.3 2.6-5.2 4.2-7.8 13.7-10.8 38.7-32.8 71.1-64.4 94.8-11.2 8.4-13.4 9.8-28.1 16.9-26.7 13-49.8 18-80.5 17.2-9.6-.2-19.1-.6-21-1-12.7-2.2-20.4-4-29.5-7-55.6-18.3-97.8-62.3-113.9-119-3.2-11.2-4.2-13.1-8-15.4-4.7-2.9-9.5-3.3-14.1-1.2z"/></svg>