<?xml version="1.0" standalone="no"?>
<!DOCTYPE svg PUBLIC "-//W3C//DTD SVG 20010904//EN"
 "http://www.w3.org/TR/2001/REC-SVG-20010904/DTD/svg10.dtd">
<svg version="1.0" xmlns="http://www.w3.org/2000/svg"
 width="700.000000pt" height="700.000000pt" viewBox="0 0 700.000000 700.000000"
 preserveAspectRatio="xMidYMid meet">
<metadata>
Created by potrace 1.11, written by Peter Selinger 2001-2013
</metadata>
<g transform="translate(0.000000,700.000000) scale(0.100000,-0.100000)"
fill="#000000" stroke="none">
<path d="M3278 6995 c-1 -1 -42 -5 -89 -9 -47 -4 -95 -8 -105 -10 -10 -2 -45
-7 -78 -11 -67 -8 -85 -11 -186 -31 -922 -186 -1725 -727 -2244 -1513 -213
-322 -390 -725 -472 -1071 -50 -214 -72 -345 -91 -550 -16 -166 -9 -566 12
-717 10 -67 14 -99 20 -148 4 -27 10 -66 15 -85 5 -19 12 -48 14 -65 53 -294
196 -677 374 -994 202 -363 463 -678 808 -976 231 -199 601 -424 907 -549 160
-66 434 -153 571 -182 97 -21 215 -41 276 -49 25 -3 56 -7 69 -10 163 -31 695
-26 908 9 21 4 52 8 68 10 70 9 209 39 332 71 438 116 831 305 1193 573 63 47
120 90 126 96 7 6 39 34 72 61 141 117 394 388 524 560 360 480 605 1090 674
1680 4 33 9 76 11 95 8 70 10 517 3 595 -15 158 -21 210 -25 225 -2 8 -7 35
-10 60 -8 60 -40 213 -70 330 -86 339 -242 689 -450 1015 -42 65 -190 269
-229 313 -13 15 -43 50 -66 77 -142 168 -360 370 -550 509 -58 43 -112 83
-121 89 -17 13 -13 11 -159 101 -363 224 -843 400 -1255 462 -27 4 -57 9 -65
10 -8 2 -44 6 -80 10 -36 3 -78 8 -95 11 -33 5 -531 13 -537 8z m522 -300 c61
-6 74 -8 215 -29 227 -34 540 -124 732 -212 17 -8 34 -14 37 -14 11 0 246
-119 321 -163 129 -75 338 -219 429 -297 196 -166 357 -332 487 -500 207 -267
351 -517 467 -810 66 -166 151 -471 168 -595 3 -27 8 -53 10 -56 1 -3 6 -28 9
-55 3 -27 8 -60 10 -74 26 -151 26 -627 0 -781 -2 -13 -6 -42 -10 -64 -11 -79
-17 -111 -37 -205 -11 -52 -21 -102 -23 -110 -17 -84 -109 -361 -153 -460 -82
-189 -147 -316 -218 -427 -19 -29 -34 -55 -34 -58 0 -16 -214 -302 -294 -394
-42 -48 -251 -257 -301 -301 -331 -291 -755 -528 -1172 -656 -174 -53 -321
-85 -498 -110 -27 -3 -59 -8 -69 -10 -160 -29 -654 -23 -826 10 -8 1 -37 6
-65 10 -27 4 -61 10 -75 12 -93 14 -345 83 -475 129 -454 162 -847 409 -1185
745 -147 147 -173 175 -276 306 -270 344 -482 778 -588 1199 -22 91 -54 252
-61 320 -4 33 -9 69 -11 80 -25 126 -24 609 1 765 2 14 7 43 9 65 5 35 24 142
41 230 57 290 213 680 386 967 50 83 158 243 189 281 5 7 26 32 46 57 20 25
52 65 72 90 62 77 323 331 422 411 337 270 698 461 1102 584 48 14 96 28 106
30 10 2 47 10 83 19 96 23 207 44 274 52 33 3 67 8 76 9 8 2 55 6 105 10 49 4
90 9 92 10 6 5 423 -3 482 -10z"/>
<path d="M2239 4649 c-126 -44 -199 -153 -194 -285 8 -191 187 -321 369 -267
208 62 278 319 129 479 -74 81 -198 110 -304 73z"/>
<path d="M4580 4652 c-167 -56 -249 -237 -178 -394 50 -109 145 -171 263 -171
86 0 147 25 205 83 110 110 115 284 11 403 -69 78 -200 113 -301 79z"/>
<path d="M1595 2901 c-83 -37 -100 -102 -61 -242 159 -582 584 -1075 1137
-1317 211 -92 398 -140 649 -168 66 -7 296 -7 365 1 203 22 366 59 540 125
523 196 960 621 1165 1135 42 103 100 300 100 336 0 108 -130 178 -222 120
-43 -26 -52 -42 -78 -137 -108 -387 -328 -711 -644 -948 -112 -84 -134 -98
-281 -169 -267 -130 -498 -180 -805 -172 -96 2 -191 6 -210 10 -127 22 -204
40 -295 70 -556 183 -978 623 -1139 1190 -32 112 -42 131 -80 154 -47 29 -95
33 -141 12z"/>
</g>
</svg>
